<?xml version="1.0" standalone="no"?>
<!DOCTYPE svg PUBLIC "-//W3C//DTD SVG 20010904//EN"
 "http://www.w3.org/TR/2001/REC-SVG-20010904/DTD/svg10.dtd">
<svg version="1.0" xmlns="http://www.w3.org/2000/svg"
 width="412.000000pt" height="412.000000pt" viewBox="0 0 412.000000 412.000000"
 preserveAspectRatio="xMidYMid meet">
<metadata>
Created by potrace 1.14, written by Peter Selinger 2001-2017
</metadata>
<g transform="translate(0.000000,412.000000) scale(0.100000,-0.100000)"
fill="#000000" stroke="none">
<path d="M826 4113 c-1 -1 -33 -4 -71 -7 -80 -6 -79 -6 -160 -30 -166 -49
-317 -154 -422 -296 -49 -65 -114 -185 -106 -194 4 -3 1 -6 -4 -6 -6 0 -10 -8
-9 -17 2 -10 -1 -20 -5 -23 -5 -3 -11 -17 -13 -30 -2 -14 -5 -25 -6 -25 -2 0
-6 -27 -16 -100 -8 -68 -9 -2586 -1 -2655 3 -25 11 -60 16 -79 6 -18 10 -36 9
-40 -1 -3 2 -14 5 -23 4 -10 10 -26 14 -35 3 -10 7 -20 8 -23 13 -53 107 -205
156 -252 15 -14 25 -29 21 -32 -3 -3 -1 -6 5 -6 5 0 21 -10 35 -23 60 -56 189
-136 228 -142 3 0 14 -6 26 -12 11 -7 32 -14 45 -17 13 -2 31 -7 39 -10 16 -6
49 -12 115 -23 57 -9 2577 -8 2650 1 70 9 98 13 105 17 3 1 10 3 15 4 6 1 19
5 30 9 11 5 32 12 47 18 15 6 28 9 30 7 2 -1 22 10 45 24 24 15 45 27 49 27 3
0 24 14 45 31 21 17 39 28 39 24 0 -12 127 121 167 175 34 48 108 184 103 192
-1 2 4 17 10 33 43 111 45 175 44 1512 -1 697 -5 1286 -8 1308 -13 80 -20 109
-35 148 -6 15 -9 27 -6 27 7 0 -80 163 -98 185 -9 11 -17 23 -17 27 0 4 -16
23 -35 42 -18 19 -31 37 -28 40 4 3 1 6 -5 6 -7 0 -25 14 -40 30 -16 17 -32
30 -36 30 -4 0 -14 6 -21 13 -8 6 -22 18 -30 26 -23 19 -165 92 -165 85 0 -4
-6 -1 -13 5 -8 6 -22 12 -33 14 -10 1 -25 6 -31 10 -7 5 -13 6 -13 3 0 -2 -15
0 -32 5 -18 5 -53 12 -78 16 -39 5 -2558 12 -2564 6z"/>
</g>
</svg>
